<svg width="371" height="172" viewBox="0 0 371 172" fill="none" xmlns="http://www.w3.org/2000/svg">
<circle cx="309.049" cy="90.0488" r="61.0488" fill="#F0544F"/>
<path d="M125.562 137.15C125.562 128.995 132.187 122.362 140.328 122.362C148.472 122.362 155.095 128.995 155.095 137.15C155.095 145.309 148.472 151.946 140.328 151.946C132.187 151.946 125.562 145.309 125.562 137.15Z" stroke="#323031"/>
<path d="M52.1568 137.15V137.15C52.1568 145.309 45.5321 151.946 37.3922 151.946C29.2476 151.946 22.623 145.309 22.623 137.15C22.623 128.995 29.2474 122.362 37.3922 122.362C45.533 122.362 52.1574 128.995 52.1568 137.15Z" stroke="#323031"/>
<path d="M143.304 54.0693C145.647 54.0693 147.728 55.5714 148.465 57.794L155.308 78.4512H136.588V54.0693H143.304Z" stroke="#323031"/>
<path d="M136.588 112.144V88.9492H171.499V94.0314V128.561C171.499 131.565 169.065 133.999 166.065 133.999H165.393C163.838 121.538 153.191 111.862 140.326 111.862C139.055 111.862 137.807 111.962 136.588 112.144Z" stroke="#323031"/>
<path d="M125.864 25.493V25.4943L126.093 116.278C120.261 120.275 116.181 126.648 115.263 134H108.875H62.4546C60.8993 121.539 50.255 111.863 37.3917 111.863C24.524 111.863 13.8779 121.539 12.3225 134H0.5V128.562V25.493V20.0547H125.864V25.493Z" stroke="#323031"/>
<path d="M268.094 90.9611L235.133 58L234.788 77.9032L248.018 91.1337L234.96 104.191L234.96 124.095L268.094 90.9611Z" fill="#323031"/>
</svg>
