<svg width="371" height="162" viewBox="0 0 371 162" fill="none" xmlns="http://www.w3.org/2000/svg">
<path d="M61.0338 146.288V146.288C61.0338 154.447 54.4091 161.084 46.2692 161.084C38.1246 161.084 31.5 154.447 31.5 146.288C31.5 138.132 38.1243 131.5 46.2692 131.5C54.41 131.5 61.0343 138.132 61.0338 146.288Z" stroke="#323031"/>
<path d="M335.034 146.288V146.288C335.034 154.447 328.409 161.084 320.269 161.084C312.125 161.084 305.5 154.447 305.5 146.288C305.5 138.132 312.124 131.5 320.269 131.5C328.41 131.5 335.034 138.132 335.034 146.288Z" stroke="#323031"/>
<rect x="0.5" y="86.5" width="370" height="38" stroke="black"/>
<rect x="38" y="43" width="37" height="37" fill="#323031"/>
<rect x="83" y="43" width="37" height="37" fill="#323031"/>
<rect x="38" width="37" height="37" fill="#323031"/>
</svg>
