<svg width="367" height="127" viewBox="0 0 367 127" fill="none" xmlns="http://www.w3.org/2000/svg">
<path d="M361 7L-7.39098e-06 6.99997" stroke="#3D3B3C"/>
<path d="M361 42L-7.39098e-06 42" stroke="#3D3B3C"/>
<line x1="19.5" y1="7" x2="19.5" y2="42" stroke="black"/>
<line x1="38.5" y1="7" x2="38.5" y2="42" stroke="black"/>
<line x1="57.5" y1="7" x2="57.5" y2="42" stroke="black"/>
<line x1="57.5" y1="7" x2="57.5" y2="42" stroke="black"/>
<line x1="76.5" y1="7" x2="76.5" y2="42" stroke="black"/>
<line x1="95.5" y1="7" x2="95.5" y2="42" stroke="black"/>
<line x1="114.5" y1="7" x2="114.5" y2="42" stroke="black"/>
<line x1="133.5" y1="7" x2="133.5" y2="42" stroke="black"/>
<line x1="152.5" y1="7" x2="152.5" y2="42" stroke="black"/>
<line x1="171.5" y1="7" x2="171.5" y2="42" stroke="black"/>
<line x1="190.5" y1="7" x2="190.5" y2="42" stroke="black"/>
<line x1="209.5" y1="7" x2="209.5" y2="42" stroke="black"/>
<line x1="228.5" y1="7" x2="228.5" y2="42" stroke="black"/>
<line x1="247.5" y1="7" x2="247.5" y2="42" stroke="black"/>
<line x1="266.5" y1="7" x2="266.5" y2="42" stroke="black"/>
<line x1="285.5" y1="7" x2="285.5" y2="42" stroke="black"/>
<line x1="304.5" y1="7" x2="304.5" y2="42" stroke="black"/>
<line x1="323.5" y1="7" x2="323.5" y2="42" stroke="black"/>
<line x1="342.5" y1="7" x2="342.5" y2="42" stroke="black"/>
<path d="M361.693 43L3.99903 91.7418" stroke="#3D3B3C"/>
<path d="M366.42 77.6797L8.72559 126.421" stroke="#3D3B3C"/>
<line x1="23.3216" y1="89.1092" x2="28.0473" y2="123.789" stroke="black"/>
<line x1="42.1478" y1="86.5438" x2="46.8734" y2="121.223" stroke="black"/>
<line x1="60.9739" y1="83.9784" x2="65.6996" y2="118.658" stroke="black"/>
<line x1="60.9739" y1="83.9784" x2="65.6996" y2="118.658" stroke="black"/>
<line x1="79.8001" y1="81.413" x2="84.5258" y2="116.092" stroke="black"/>
<line x1="98.6263" y1="78.8475" x2="103.352" y2="113.527" stroke="black"/>
<line x1="117.452" y1="76.2821" x2="122.178" y2="110.962" stroke="black"/>
<line x1="136.277" y1="73.7176" x2="141.002" y2="108.397" stroke="black"/>
<line x1="155.103" y1="71.1522" x2="159.829" y2="105.832" stroke="black"/>
<line x1="173.929" y1="68.5868" x2="178.655" y2="103.266" stroke="black"/>
<line x1="192.755" y1="66.0214" x2="197.481" y2="100.701" stroke="black"/>
<line x1="211.581" y1="63.4559" x2="216.307" y2="98.1354" stroke="black"/>
<line x1="230.408" y1="60.8905" x2="235.133" y2="95.57" stroke="black"/>
<line x1="249.234" y1="58.3251" x2="253.959" y2="93.0046" stroke="black"/>
<line x1="268.06" y1="55.7596" x2="272.786" y2="90.4391" stroke="black"/>
<line x1="286.886" y1="53.1942" x2="291.612" y2="87.8737" stroke="black"/>
<line x1="305.712" y1="50.6288" x2="310.438" y2="85.3083" stroke="black"/>
<line x1="324.538" y1="48.0633" x2="329.264" y2="82.7429" stroke="black"/>
<line x1="343.365" y1="45.4979" x2="348.09" y2="80.1774" stroke="black"/>
<rect x="43" width="78" height="48" fill="#F0544F"/>
<rect x="125" width="78" height="48" fill="#323031"/>
</svg>
