<svg width="81" height="57" viewBox="0 0 81 57" fill="none" xmlns="http://www.w3.org/2000/svg">
<path d="M80.8684 24.4359L80.8707 56.8746H70.4332L69.7561 56.8949H11.2415L0.126933 56.8746V45.7803L0.124023 24.4359H80.8684ZM65.7711 38.6032H55.6669L55.2556 38.6308C53.776 38.8315 52.6357 40.0998 52.6357 41.6344C52.6357 43.169 53.776 44.4373 55.2556 44.638L55.6669 44.6657H65.7711L66.1824 44.638C67.662 44.4373 68.8023 43.169 68.8023 41.6344C68.8023 40.0998 67.662 38.8315 66.1824 38.6308L65.7711 38.6032ZM80.8504 0.291016V10.7285L80.8707 11.4056L80.8684 18.3734H0.124023L0.126933 11.4056V0.291016H11.2415H80.8504Z" fill="#3D3B3C"/>
</svg>
