<svg width="69" height="69" viewBox="0 0 69 69" fill="none" xmlns="http://www.w3.org/2000/svg">
<path d="M43.7997 35.7295C42.3999 35.7295 41.2356 36.2038 40.4337 37.1018C39.7146 37.9063 39.3184 39.0003 39.3184 40.1827C39.3184 42.3542 40.7365 44.6918 43.8496 44.6918C45.2497 44.6918 46.4136 44.2175 47.2155 43.3195C47.9347 42.5149 48.3306 41.4206 48.3306 40.2386C48.3306 38.0668 46.9127 35.7295 43.7997 35.7295Z" fill="#3D3B3C"/>
<path d="M65.8185 0H3.18262V5.35922V63.6408C3.18262 66.1131 3.99387 69 6.12416 69C7.9185 69 10.8135 66.2795 11.124 65.9797L13.5179 63.7208C13.9088 63.343 14.4434 63.135 15.0108 63.135C15.5778 63.135 16.1091 63.343 16.5003 63.7208L18.8289 65.9694C20.3496 67.4385 22.9937 69 24.8975 69C26.8021 69 29.4455 67.4385 30.9658 65.9694L33.2938 63.7208C33.6846 63.343 34.2125 63.135 34.7799 63.135C35.347 63.135 35.8749 63.343 36.2661 63.7208L38.593 65.9694C40.1134 67.4385 42.7568 69 44.6607 69C46.5652 69 49.2083 67.4385 50.7283 65.9694L53.0559 63.7208C53.4468 63.343 53.9743 63.135 54.5421 63.135C55.1091 63.135 55.637 63.343 56.0282 63.7208L58.3552 65.9694C59.5265 67.1012 61.6591 69 63.156 69C64.9088 69 65.8185 67.0965 65.8185 63.6408V5.35922V0ZM19.4191 14.6394C20.9997 12.9167 23.2358 12.0063 25.886 12.0063C31.5815 12.0063 34.5619 16.2294 34.5619 20.4009C34.5619 22.5915 33.7871 24.638 32.38 26.1641C30.7927 27.8854 28.5472 28.7954 25.886 28.7954C20.2156 28.7954 17.2486 24.5724 17.2486 20.4009C17.2486 18.2113 18.0193 16.1651 19.4191 14.6394ZM24.1198 45.2184H18.5823L45.6628 15.1857L51.1648 15.047L24.1198 45.2184ZM50.1709 45.889C48.6141 47.5778 46.4111 48.4705 43.8005 48.4705C38.2376 48.4705 35.3276 44.3278 35.3276 40.2357C35.3276 38.0877 36.0839 36.0806 37.4569 34.5841C39.0074 32.8942 41.201 32.0013 43.8005 32.0013C49.3878 32.0013 52.311 36.1439 52.311 40.236C52.311 42.3844 51.5509 44.3921 50.1709 45.889Z" fill="#3D3B3C"/>
<path d="M25.9378 24.8413C27.3419 24.8413 28.5092 24.368 29.3131 23.473C30.0326 22.6715 30.4291 21.5816 30.4291 20.4042C30.4291 18.2397 29.0079 15.9102 25.8869 15.9102C22.7048 15.9102 21.2803 18.1389 21.2803 20.3479C21.2803 22.512 22.738 24.8413 25.9378 24.8413Z" fill="#3D3B3C"/>
</svg>
