<svg width="73" height="73" viewBox="0 0 73 73" fill="none" xmlns="http://www.w3.org/2000/svg">
<g clip-path="url(#clip0_496_10735)">
<path d="M70.5666 24.0898H0V26.5232V38.5277V40.9611H73.0001V38.5277V24.0898H70.5666Z" fill="#3D3B3C"/>
<path d="M47.0449 4.06836L26.1182 4.06844V6.40848V19.224L26.9293 19.2241H46.2338L47.0449 19.224V6.40834V4.06836Z" fill="#3D3B3C"/>
<path d="M66.4893 45.8281H6.50925H5.03516L10.0646 67.1023L10.6989 69.0259H62.3024L62.9335 67.1023L67.9662 45.8281H66.4893ZM25.6304 61.4015C25.6304 62.7453 24.541 63.8349 23.197 63.8349C21.8531 63.8349 20.7636 62.7454 20.7636 61.4015V53.2904C20.7636 51.9466 21.8531 50.857 23.197 50.857C24.541 50.857 25.6304 51.9464 25.6304 53.2904V61.4015ZM38.9327 61.4015C38.9327 62.7453 37.8432 63.8349 36.4993 63.8349C35.1553 63.8349 34.0659 62.7454 34.0659 61.4015V53.2904C34.0659 51.9466 35.1553 50.857 36.4993 50.857C37.8432 50.857 38.9327 51.9464 38.9327 53.2904V61.4015ZM52.2348 61.4015C52.2348 62.7453 51.1453 63.8349 49.8014 63.8349C48.4574 63.8349 47.368 62.7454 47.368 61.4015V53.2904C47.368 51.9466 48.4574 50.857 49.8014 50.857C51.1453 50.857 52.2348 51.9464 52.2348 53.2904V61.4015Z" fill="#3D3B3C"/>
</g>
<defs>
<clipPath id="clip0_496_10735">
<rect width="73" height="73" fill="white"/>
</clipPath>
</defs>
</svg>
