<svg width="69" height="69" viewBox="0 0 69 69" fill="none" xmlns="http://www.w3.org/2000/svg">
<g clip-path="url(#clip0_496_10800)">
<path d="M62.7381 13.6826H6.26491L2.87891 20.8668H66.1243L62.7381 13.6826Z" fill="#3D3B3C"/>
<path d="M48.7881 25.416C49.8084 29.5448 53.5382 32.6154 57.9724 32.6154C62.4066 32.6154 66.1362 29.5446 67.1565 25.416H48.7881Z" fill="#3D3B3C"/>
<path d="M34.5005 32.6154C38.9347 32.6154 42.6644 29.5446 43.6847 25.416H25.3164C26.3365 29.5446 30.0663 32.6154 34.5005 32.6154Z" fill="#3D3B3C"/>
<path d="M20.2113 25.416H1.84277C2.86306 29.5448 6.59286 32.6154 11.0271 32.6154C15.4613 32.6154 19.191 29.5446 20.2113 25.416Z" fill="#3D3B3C"/>
<path d="M46.2366 30.7939C43.7331 34.6269 39.4071 37.165 34.5001 37.165C29.5931 37.165 25.267 34.6269 22.7636 30.7939C20.2602 34.6269 15.9339 37.165 11.027 37.165C9.53149 37.165 8.09068 36.928 6.73828 36.4917V69.0007H22.4184V43.0374H46.5818V69.0007H62.2619V36.4915C60.9095 36.9278 59.4687 37.1648 57.9731 37.1648C53.0663 37.165 48.7402 34.6269 46.2366 30.7939Z" fill="#3D3B3C"/>
<path d="M55.3647 0H13.6357V9.13242H55.3647V0Z" fill="#3D3B3C"/>
<path d="M42.0332 47.5859H26.9688V68.9997H42.0332V47.5859Z" fill="#3D3B3C"/>
</g>
<defs>
<clipPath id="clip0_496_10800">
<rect width="69" height="69" fill="white"/>
</clipPath>
</defs>
</svg>
