<svg width="89" height="69" viewBox="0 0 89 69" fill="none" xmlns="http://www.w3.org/2000/svg">
<path d="M72.6117 53.0566C68.2561 53.0566 64.7129 56.6047 64.7129 60.9672C64.7129 65.3315 68.2561 68.8819 72.6117 68.8819C76.9691 68.8819 80.5115 65.3315 80.5115 60.9672C80.5115 56.6047 76.9691 53.0566 72.6117 53.0566Z" fill="#3D3B3C"/>
<path d="M19.3472 53.0566C14.9895 53.0566 11.4463 56.6047 11.4463 60.9672C11.4463 65.3315 14.9895 68.8819 19.3472 68.8819C23.7025 68.8819 27.2457 65.3315 27.2457 60.9672C27.246 56.6047 23.7028 53.0566 19.3472 53.0566Z" fill="#3D3B3C"/>
<path d="M77.0681 19.8233C76.6513 18.5674 75.476 17.7188 74.1518 17.7188H70.418V30.8524H80.7216L77.0681 19.8233Z" fill="#3D3B3C"/>
<path d="M89.0001 35.7666H70.418V48.3309C71.1309 48.2086 71.8638 48.14 72.6109 48.14C79.2134 48.14 84.6649 53.1654 85.3511 59.5946H85.9295C87.6246 59.5946 89.0001 58.2192 89.0001 56.5219V38.6551V35.7666Z" fill="#3D3B3C"/>
<path d="M65.3862 3.19091V0.118164H0V3.19091V56.5229V59.5956H6.60668C7.2932 53.1663 12.7444 48.141 19.3481 48.141C25.9493 48.141 31.3996 53.1663 32.0861 59.5956H56.3364H59.8724C60.2859 55.7246 62.4258 52.3668 65.5049 50.3037L65.3862 3.19091Z" fill="#3D3B3C"/>
</svg>
