<svg width="145" height="176" viewBox="0 0 145 176" fill="none" xmlns="http://www.w3.org/2000/svg">
<path fill-rule="evenodd" clip-rule="evenodd" d="M144.633 0L0 0L0 175.67H144.633V0ZM120.238 31.3066L24.3965 31.3066L24.3965 43.4818L120.238 43.4818V31.3066ZM24.3965 55.6553L120.238 55.6553V67.8304H24.3965V55.6553ZM120.238 80.0137H24.3965V92.1888H120.238V80.0137ZM24.3965 104.359H120.238V116.535H24.3965V104.359ZM72.3164 154.798C79.5343 154.798 85.3857 148.957 85.3857 141.753C85.3857 134.548 79.5343 128.708 72.3164 128.708C65.0984 128.708 59.2471 134.548 59.2471 141.753C59.2471 148.957 65.0984 154.798 72.3164 154.798Z" fill="#3D3B3C"/>
</svg>
