<svg width="174" height="176" viewBox="0 0 174 176" fill="none" xmlns="http://www.w3.org/2000/svg">
<path d="M89.5867 0.0703121C89.054 0.0404827 88.5255 0 87.9887 0C87.8497 0 87.7108 0.0170454 87.5718 0.019176C87.3339 0.0170454 87.0981 0 86.8581 0C38.9645 0 0 39.4323 0 87.8986C0 136.369 38.9645 175.801 86.8581 175.801C134.752 175.801 173.716 136.369 173.716 87.8986C173.716 40.3591 136.219 1.53621 89.5867 0.0703121ZM88.2203 162.919C88.1424 162.922 88.0687 162.932 87.9908 162.932C87.9129 162.932 87.8371 162.922 87.7613 162.919H88.2203ZM80.5398 161.266C71.7666 157.326 64.0545 146.631 58.7995 132.059C65.6504 130.363 72.9667 129.261 80.5398 128.825V161.266ZM80.5398 116.03C71.7413 116.501 63.2061 117.798 55.195 119.835C53.3339 111.935 52.1359 103.312 51.7443 94.2928H80.5398V116.03ZM51.7401 81.5087C52.1675 71.5372 53.5865 62.0557 55.7909 53.4904C63.6145 55.4294 71.9435 56.6481 80.5398 57.0998V81.5087H51.7401ZM80.5398 44.2945C73.3435 43.8662 66.3263 42.8307 59.709 41.2455C64.9241 27.9118 72.2572 18.1661 80.5398 14.4502V44.2945ZM93.1721 57.2127C102.547 56.8675 111.658 55.5934 120.182 53.4755C122.389 62.0451 123.81 71.5308 124.237 81.5087H93.1721V57.2127ZM93.1721 44.4138V13.5937C102.39 16.4424 110.601 26.7335 116.287 41.303C109.009 43.0395 101.215 44.0942 93.1721 44.4138ZM119.887 20.6568C126.488 23.9913 132.526 28.291 137.832 33.3727C134.882 34.9302 131.735 36.3364 128.427 37.5871C126.008 31.2761 123.136 25.5893 119.887 20.6568ZM47.5609 37.5594C43.6933 36.1042 40.0678 34.4316 36.7139 32.5758C42.71 27.0062 49.6094 22.4296 57.1615 19.0801C53.477 24.3535 50.241 30.573 47.5609 37.5594ZM43.6511 49.7511C41.1099 59.4329 39.5309 70.1438 39.0993 81.5066H12.9208C14.1504 66.8199 19.5654 53.3285 27.9639 42.2576C32.7326 45.1489 38.0024 47.6524 43.6511 49.7511ZM39.1014 94.2928C39.5035 104.725 40.8762 114.594 43.0701 123.63C37.0928 125.891 31.5725 128.605 26.6311 131.726C18.9949 121.009 14.0851 108.187 12.9208 94.2949L39.1014 94.2928ZM46.7124 135.858C49.5694 143.839 53.1317 150.894 57.2541 156.766C48.9083 153.078 41.3605 147.883 34.9432 141.519C38.5308 139.386 42.489 137.501 46.7124 135.858ZM93.1721 162.123V128.705C101.522 129.046 109.622 130.201 117.172 132.076C111.47 147.879 102.874 159.12 93.1721 162.123ZM93.1721 115.9V94.2928H124.233C123.841 103.288 122.65 111.888 120.797 119.769C112.131 117.575 102.832 116.247 93.1721 115.9ZM136.878 94.2928H160.795C159.669 107.759 155.022 120.221 147.782 130.736C143.238 127.994 138.259 125.599 132.92 123.577C135.107 114.551 136.474 104.699 136.878 94.2928ZM136.88 81.5087C136.446 70.1438 134.869 59.4329 132.328 49.749C137.371 47.8761 142.104 45.6751 146.451 43.1737C154.456 54.0679 159.599 67.2269 160.795 81.5087H136.88ZM119.803 155.189C123.469 149.648 126.658 143.145 129.263 135.871C132.933 137.296 136.394 138.913 139.588 140.709C133.853 146.571 127.172 151.476 119.803 155.189Z" fill="#3D3B3C"/>
</svg>
