<svg width="178" height="177" viewBox="0 0 178 177" fill="none" xmlns="http://www.w3.org/2000/svg">
<path fill-rule="evenodd" clip-rule="evenodd" d="M106.864 20.0204L88.5332 0L70.202 20.0204L44.2666 11.8025L38.4513 38.2609L11.8612 44.0475L20.12 69.8544L0 88.0949L20.12 106.335L11.8612 132.142L38.4513 137.929L44.2666 164.387L70.202 156.169L88.5332 176.19L106.864 156.169L132.8 164.387L138.615 137.929L165.205 132.142L156.946 106.335L177.066 88.0949L156.946 69.8544L165.205 44.0475L138.615 38.2609L132.8 11.8025L106.864 20.0204ZM102.659 68.7506L88.5321 25.4893L74.4058 68.7506L28.6918 68.7506L65.6752 95.4875L51.5488 138.749L88.5321 112.012L125.515 138.749L111.389 95.4875L148.372 68.7506L102.659 68.7506Z" fill="#3D3B3C"/>
</svg>
