<svg width="341" height="165" viewBox="0 0 341 165" fill="none" xmlns="http://www.w3.org/2000/svg">
<g clip-path="url(#clip0_1048_8848)">
<path d="M109.862 35.8187L74.0552 57.4461L95.6808 93.2495L131.487 71.6221L109.862 35.8187Z" fill="#F0544F"/>
<path d="M41.0801 68.6345L5.27368 90.2619L26.8993 126.065L62.7057 104.438L41.0801 68.6345Z" fill="#F0544F"/>
<path d="M126.604 106.976L90.7974 128.603L112.423 164.407L148.229 142.779L126.604 106.976Z" fill="#F0544F"/>
<path d="M5.5404 5.00033C5.5404 5.00033 13.1893 90.9108 54.0417 110.98C96.5467 131.862 131.042 104.733 171.175 79.5905C206.201 57.6468 241.169 24.8218 284.128 42.4497C328.757 60.7634 336.809 154.181 336.809 154.181" stroke="#3D3B3C"/>
<path d="M5.54073 5.00034C5.54073 5.00034 17.9049 76.332 61.7256 96.0658C104.906 115.511 131.043 104.733 171.175 79.5905C206.202 57.6468 240.866 36.5075 277.45 52.9826C321.437 72.7909 336.809 154.181 336.809 154.181" stroke="#3D3B3C"/>
<circle r="3.96818" transform="matrix(-0.911809 -0.410615 -0.410615 0.911809 5.32025 4.41823)" fill="#3D3B3C"/>
<circle r="3.96818" transform="matrix(-0.911809 -0.410615 -0.410615 0.911809 335.912 153.938)" fill="#3D3B3C"/>
</g>
<defs>
<clipPath id="clip0_1048_8848">
<rect width="341" height="165" fill="white"/>
</clipPath>
</defs>
</svg>
