<svg width="128" height="32" viewBox="0 0 128 32" fill="none" xmlns="http://www.w3.org/2000/svg">
<path d="M43.325 31.038H48.342L40.7922 13.99H36.0431L28.5176 31.038H33.4372L34.7766 27.7258H41.9855L43.325 31.038ZM36.1892 24.1701L38.3811 18.7147L40.573 24.1701H36.1892Z" fill="#3D3B3C"/>
<path d="M60.2545 31.038H65.4176L61.7401 25.6801C63.859 24.6572 65.0767 22.8063 65.0767 20.2978C65.0767 16.4011 62.1541 13.99 57.5025 13.99H49.7091V31.038H54.5312V26.5081H57.1615L60.2545 31.038ZM60.2058 20.2978C60.2058 21.8564 59.2073 22.7819 57.2102 22.7819H54.5312V17.7893H57.2102C59.2073 17.7893 60.2058 18.7147 60.2058 20.2978Z" fill="#3D3B3C"/>
<path d="M67.737 31.038H83.9748V27.2144H72.5592V13.99H67.737V31.038Z" fill="#3D3B3C"/>
<path d="M91.9194 27.3118V24.1945H99.4936V20.59H91.9194V17.7162H100.516V13.99H87.146V31.038H100.833V27.3118H91.9194Z" fill="#3D3B3C"/>
<path d="M115.44 13.99V23.0742L107.48 13.99H103.51V31.038H108.235V21.9539L116.195 31.038H120.165V13.99H115.44Z" fill="#3D3B3C"/>
<path d="M117.89 0L107.62 10.2704H113.718L117.89 6.09804L121.902 10.2704H128L117.89 0Z" fill="#F0544F"/>
<path d="M4.8428 13.9905L13.2729 22.7793V28.8776L4.49156 19.9095V31.2093H0V13.9905H4.8428Z" fill="#3D3B3C"/>
<path d="M21.7029 14.1571L13.2729 22.7793V28.8776L22.0541 19.9639V31.0498H26.5457V14.1571H21.7029Z" fill="#3D3B3C"/>
</svg>
