<svg width="209" height="25" viewBox="0 0 209 25" fill="none" xmlns="http://www.w3.org/2000/svg">
<path d="M64.3379 17.2342H63.5856L61.3232 9.93799H62.4262L63.9929 14.9774L65.4973 9.93799H66.193L67.6975 14.9774L69.2586 9.93799H70.3615L68.1047 17.2342H67.3468L65.8424 12.37L64.3379 17.2342Z" fill="#818181"/>
<path d="M80.4363 16.1935V17.2342H75.5156V9.93799H80.3232V10.9787H76.6129V12.947H80.0291V13.9933H76.6129V16.1935H80.4363Z" fill="#818181"/>
<path d="M90.2793 13.3542C90.4716 13.4635 90.645 13.603 90.7996 13.7727C90.9316 13.9198 91.0504 14.1045 91.1559 14.327C91.2653 14.5495 91.32 14.8229 91.32 15.1471C91.32 15.4262 91.2615 15.692 91.1446 15.9446C91.0315 16.1935 90.8694 16.4141 90.6582 16.6064C90.4508 16.7949 90.2057 16.9476 89.9229 17.0645C89.6439 17.1776 89.3385 17.2342 89.0067 17.2342H86.0543V9.93799H88.9501C89.2367 9.93799 89.5063 9.99266 89.7589 10.102C90.0153 10.2076 90.2378 10.3528 90.4263 10.5375C90.6148 10.7223 90.7619 10.9372 90.8675 11.1823C90.9768 11.4236 91.0315 11.6838 91.0315 11.9628C91.0315 12.1928 90.99 12.3964 90.9071 12.5737C90.8279 12.7471 90.743 12.8904 90.6525 13.0035C90.5432 13.143 90.4188 13.2599 90.2793 13.3542ZM87.1515 12.947H88.9501C89.2442 12.947 89.4912 12.8489 89.691 12.6528C89.8909 12.4568 89.9908 12.2268 89.9908 11.9628C89.9908 11.6989 89.889 11.4689 89.6854 11.2728C89.4855 11.0767 89.2404 10.9787 88.9501 10.9787H87.1515V12.947ZM89.0067 16.1935C89.1763 16.1935 89.3366 16.1633 89.4874 16.103C89.6382 16.0389 89.7664 15.9559 89.872 15.8541C89.9814 15.7485 90.0662 15.626 90.1265 15.4865C90.1906 15.347 90.2227 15.1961 90.2227 15.034C90.2227 14.8719 90.1906 14.721 90.1265 14.5815C90.0662 14.442 89.9814 14.3214 89.872 14.2195C89.7664 14.114 89.6382 14.031 89.4874 13.9707C89.3366 13.9066 89.1763 13.8745 89.0067 13.8745H87.1515V16.1935H89.0067Z" fill="#818181"/>
<path d="M103.778 17.2342H102.618L105.401 9.93799H106.323L109.105 17.2342H107.946L107.307 15.5544H104.411L103.778 17.2342ZM106.905 14.5137L105.859 11.6178L104.818 14.5137H106.905Z" fill="#818181"/>
<path d="M118.717 16.1935V17.2342H114.141V9.93799H115.238V16.1935H118.717Z" fill="#818181"/>
<path d="M122.717 9.93799H128.22V10.9787H126.014V17.2342H124.917V10.9787H122.717V9.93799Z" fill="#818181"/>
<path d="M138.351 16.1935V17.2342H133.431V9.93799H138.238V10.9787H134.528V12.947H137.944V13.9933H134.528V16.1935H138.351Z" fill="#818181"/>
<path d="M146.339 14.3383H145.067V17.2342H143.969V9.93799H146.865C147.167 9.93799 147.452 9.99643 147.719 10.1133C147.991 10.2264 148.225 10.3829 148.421 10.5828C148.617 10.7788 148.773 11.0126 148.89 11.2841C149.007 11.5518 149.065 11.8365 149.065 12.1382C149.065 12.5642 148.981 12.9111 148.811 13.1789C148.641 13.4428 148.455 13.6521 148.251 13.8067C148.013 13.9914 147.744 14.1309 147.442 14.2252L149.235 17.2342H148.019L146.339 14.3383ZM145.067 13.2976H146.865C147.012 13.2976 147.15 13.2675 147.278 13.2071C147.41 13.143 147.525 13.0601 147.623 12.9583C147.725 12.8527 147.806 12.7301 147.866 12.5906C147.931 12.4511 147.963 12.3003 147.963 12.1382C147.963 11.976 147.931 11.8252 147.866 11.6857C147.806 11.5462 147.725 11.4255 147.623 11.3237C147.525 11.2181 147.41 11.1352 147.278 11.0748C147.15 11.0107 147.012 10.9787 146.865 10.9787H145.067V13.2976Z" fill="#818181"/>
<path d="M160.181 9.93799V17.2342H159.253L155.718 12.0194V17.2342H154.621V9.93799H155.543L159.078 15.1471V9.93799H160.181Z" fill="#818181"/>
<path d="M166.376 17.2342H165.216L167.999 9.93799H168.921L171.704 17.2342H170.544L169.905 15.5544H167.009L166.376 17.2342ZM169.504 14.5137L168.457 11.6178L167.417 14.5137H169.504Z" fill="#818181"/>
<path d="M175.58 9.93799H181.083V10.9787H178.877V17.2342H177.78V10.9787H175.58V9.93799Z" fill="#818181"/>
<path d="M187.391 17.2342H186.294V9.93799H187.391V17.2342Z" fill="#818181"/>
<path d="M192.545 9.93799H193.705L195.735 15.5544L197.76 9.93799H198.919L196.255 17.2342H195.215L192.545 9.93799Z" fill="#818181"/>
<path d="M209 16.1935V17.2342H204.079V9.93799H208.887V10.9787H205.176V12.947H208.593V13.9933H205.176V16.1935H209Z" fill="#818181"/>
<path fill-rule="evenodd" clip-rule="evenodd" d="M15.0699 24.8398H20.2268L23.1415 21.8045L26.0562 24.8398H31.193L23.1314 16.4448L15.0699 24.8398ZM0 6.75055L8.68691 24.2166L13.9453 19.006L7.65897 8.80508L0 6.75055ZM46.3675 6.74785L37.6807 24.2139L32.4224 19.0033L38.7088 8.80238L46.3675 6.74785ZM23.1346 0L14.4676 12.1762L16.7806 16.1684L23.1346 9.75238L29.4883 16.1684L31.8013 12.1762L23.1346 0Z" fill="#818181"/>
</svg>
