<svg width="194" height="48" viewBox="0 0 194 48" fill="none" xmlns="http://www.w3.org/2000/svg">
<path d="M65.327 47.557H72.8918L61.5079 21.8516H54.3471L43 47.557H50.4179L52.4376 42.5628H63.3073L65.327 47.557ZM54.5675 37.2014L57.8724 28.9756L61.1774 37.2014H54.5675Z" fill="#C1BDB3"/>
<path d="M90.8537 47.557H98.6388L93.0938 39.4782C96.2886 37.9358 98.1247 35.145 98.1247 31.3626C98.1247 25.487 93.7181 21.8516 86.7041 21.8516H74.9531V47.557H82.224V40.7267H86.19L90.8537 47.557ZM90.7803 31.3626C90.7803 33.7128 89.2747 35.1082 86.2635 35.1082H82.224V27.5802H86.2635C89.2747 27.5802 90.7803 28.9756 90.7803 31.3626Z" fill="#C1BDB3"/>
<path d="M102.136 47.557H126.62V41.7916H109.407V21.8516H102.136V47.557Z" fill="#C1BDB3"/>
<path d="M138.599 41.9385V37.2381H150.019V31.8032H138.599V27.47H151.562V21.8516H131.401V47.557H152.039V41.9385H138.599Z" fill="#C1BDB3"/>
<path d="M174.063 21.8516V35.5489L162.061 21.8516H156.075V47.557H163.199V33.8597L175.201 47.557H181.187V21.8516H174.063Z" fill="#C1BDB3"/>
<path d="M177.757 0.756836L162.271 16.2428H171.466L177.757 9.95162L183.807 16.2428L193.001 16.2428L177.757 0.756836Z" fill="#F0544F"/>
<path d="M7.30209 21.8516L20.0131 35.1035V44.2987L6.77249 30.7763V47.8145H0V21.8516H7.30209Z" fill="#C1BDB3"/>
<path d="M32.7242 22.1027L20.0131 35.1035V44.2987L33.2538 30.8585V47.574H40.0263V22.1027H32.7242Z" fill="#C1BDB3"/>
</svg>
