<?xml version="1.0" encoding="utf-8"?><svg viewBox="0 0 89 125" xmlns="http://www.w3.org/2000/svg" xmlns:xlink="http://www.w3.org/1999/xlink"><style>:root>svg{display:none}:root>svg:target{display:block}</style><svg fill="none" viewBox="0 0 13 15" id="address"><path d="M6.5.115A5.805 5.805 0 00.695 5.92c0 1.432.52 2.74 1.379 3.752L6.5 14.885l4.426-5.213a5.778 5.778 0 001.38-3.752A5.805 5.805 0 006.5.115zm0 7.993a2.387 2.387 0 110-4.775 2.387 2.387 0 010 4.775z" fill="#F0544F"/></svg><svg fill="none" viewBox="0 0 39 20" id="arrow-down"><path d="M19.093 19.664L38.123.348h-11.3l-7.73 7.847L11.659.348H.359l18.733 19.316z" fill="#F0544F"/></svg><svg fill="none" viewBox="0 0 33 66" id="arrow-left"><g clip-path="url(#cclip0_1016_8824)"><path d="M0 33.134l32.96 32.96.346-19.902-13.23-13.23 13.057-13.059V0L0 33.134z" fill="#F0544F"/></g><defs><clipPath id="cclip0_1016_8824"><path fill="#fff" d="M0 0h33v66H0z"/></clipPath></defs></svg><svg fill="none" viewBox="0 0 33 66" id="arrow-right"><g clip-path="url(#dclip0_1016_8824)"><path d="M33.095 32.961L.134 0l-.345 19.903 13.23 13.23L-.039 46.192v19.904L33.095 32.96z" fill="#F0544F"/></g><defs><clipPath id="dclip0_1016_8824"><path fill="#fff" d="M0 0h33v66H0z"/></clipPath></defs></svg><svg fill="none" viewBox="0 0 36 18" id="arrow-up"><path d="M17.53 0L0 17.53l10.585.183 7.036-7.036 6.944 6.944H35.15L17.53.001z" fill="#3D3B3C"/></svg><svg fill="none" viewBox="0 0 83 56" id="check"><path d="M29.76 55.24L82.183.816H64.219L29.605 37.208 17.877 25.48H0l29.76 29.76z" fill="#3D3B3C"/></svg><svg fill="none" viewBox="0 0 39 48" id="download-file"><path d="M30.615 22.059v24.94H1V7.354h15.025" stroke="#323031"/><path d="M16.051 22.047l14.63-.05-4.355-4.479-5.873.02-.02-5.796-4.432-4.402.05 14.707z" fill="#F0544F"/></svg><svg fill="none" viewBox="0 0 31 41" id="files"><g clip-path="url(#hclip0_1134_8820)"><path d="M30.615 15.027v24.941H1V.321h15.025" stroke="#3D3B3C"/><path d="M15.582 14.52l14.602.912-4.052-4.755-5.861-.367.361-5.784L16.5-.16l-.917 14.679z" fill="#F0544F"/></g><defs><clipPath id="hclip0_1134_8820"><path fill="#fff" d="M0 0h31v41H0z"/></clipPath></defs></svg><svg fill="none" viewBox="0 0 73 73" id="icon-1"><g clip-path="url(#iclip0_496_10735)" fill="#3D3B3C"><path d="M70.567 24.09H0V40.96h73V24.09h-2.433zM47.045 4.068H26.118v15.156h20.926V4.068zM66.49 45.828H5.034l5.03 21.274.634 1.924h51.603l.632-1.924 5.032-21.274H66.49zM25.63 61.401a2.433 2.433 0 01-4.866 0v-8.11a2.434 2.434 0 014.866 0v8.11zm13.303 0a2.434 2.434 0 01-4.867 0v-8.11a2.433 2.433 0 014.867 0v8.11zm13.302 0a2.434 2.434 0 01-4.867 0v-8.11a2.433 2.433 0 014.867 0v8.11z"/></g><defs><clipPath id="iclip0_496_10735"><path fill="#fff" d="M0 0h73v73H0z"/></clipPath></defs></svg><svg fill="none" viewBox="0 0 69 69" id="icon-2"><path d="M43.8 35.73c-1.4 0-2.564.474-3.366 1.372-.72.804-1.116 1.898-1.116 3.08 0 2.172 1.419 4.51 4.532 4.51 1.4 0 2.564-.474 3.365-1.373.72-.804 1.116-1.898 1.116-3.08 0-2.172-1.418-4.51-4.531-4.51z" fill="#3D3B3C"/><path d="M65.819 0H3.182v63.64c0 2.473.81 5.36 2.941 5.36 1.795 0 4.69-2.72 5-3.02l2.394-2.26c.39-.377.925-.585 1.493-.585a2.13 2.13 0 011.49.586l2.328 2.248C20.349 67.44 22.994 69 24.898 69s4.547-1.561 6.068-3.03l2.328-2.25c.39-.377.919-.585 1.486-.585s1.095.208 1.486.586l2.327 2.248C40.113 67.44 42.757 69 44.661 69s4.547-1.561 6.067-3.03l2.328-2.25a2.12 2.12 0 011.486-.585c.567 0 1.095.208 1.486.586l2.327 2.248C59.527 67.101 61.66 69 63.156 69c1.753 0 2.663-1.903 2.663-5.36V0zm-46.4 14.64c1.58-1.723 3.817-2.634 6.467-2.634 5.695 0 8.676 4.223 8.676 8.395 0 2.19-.775 4.237-2.182 5.763-1.587 1.721-3.833 2.631-6.494 2.631-5.67 0-8.637-4.223-8.637-8.394 0-2.19.77-4.236 2.17-5.762zm4.7 30.578h-5.537l27.08-30.032 5.503-.139L24.12 45.218zm26.052.671c-1.557 1.689-3.76 2.581-6.37 2.581-5.563 0-8.473-4.142-8.473-8.234 0-2.148.756-4.155 2.129-5.652 1.55-1.69 3.744-2.583 6.343-2.583 5.588 0 8.511 4.143 8.511 8.235 0 2.148-.76 4.156-2.14 5.653z" fill="#3D3B3C"/><path d="M25.938 24.841c1.404 0 2.571-.473 3.375-1.368.72-.801 1.116-1.891 1.116-3.069 0-2.164-1.421-4.494-4.542-4.494-3.182 0-4.607 2.229-4.607 4.438 0 2.164 1.458 4.493 4.658 4.493z" fill="#3D3B3C"/></svg><svg fill="none" viewBox="0 0 89 69" id="icon-3"><path d="M72.612 53.057c-4.356 0-7.9 3.548-7.9 7.91 0 4.365 3.544 7.915 7.9 7.915 4.357 0 7.9-3.55 7.9-7.915 0-4.362-3.543-7.91-7.9-7.91zM19.347 53.057c-4.358 0-7.9 3.548-7.9 7.91 0 4.365 3.543 7.915 7.9 7.915 4.355 0 7.899-3.55 7.899-7.915 0-4.362-3.543-7.91-7.899-7.91zM77.068 19.823a3.073 3.073 0 00-2.916-2.104h-3.734v13.133h10.304l-3.654-11.029zM89 35.767H70.418V48.33c.713-.122 1.446-.191 2.193-.191 6.602 0 12.054 5.025 12.74 11.455h.579A3.072 3.072 0 0089 56.522V35.767z" fill="#3D3B3C"/><path d="M65.386 3.19V.119H0v59.478h6.607c.686-6.43 6.137-11.455 12.741-11.455 6.601 0 12.052 5.025 12.738 11.455h27.786a12.836 12.836 0 015.633-9.292L65.386 3.19z" fill="#3D3B3C"/></svg><svg fill="none" viewBox="0 0 80 70" id="icon-4"><path d="M34.944 39.773H0V70h34.944V39.773zM34.944 0H0v30.226h34.944V0zM79.427 39.773H44.482V70h34.945V39.773z" fill="#3D3B3C"/></svg><svg fill="none" viewBox="0 0 69 69" id="icon-5"><g clip-path="url(#mclip0_496_10800)" fill="#3D3B3C"><path d="M62.738 13.683H6.265l-3.386 7.184h63.245l-3.386-7.184zM48.788 25.416c1.02 4.129 4.75 7.2 9.184 7.2 4.435 0 8.164-3.071 9.184-7.2H48.788zM34.5 32.615c4.435 0 8.164-3.07 9.185-7.199H25.316c1.02 4.129 4.75 7.2 9.185 7.2zM20.211 25.416H1.843c1.02 4.129 4.75 7.2 9.184 7.2 4.434 0 8.164-3.071 9.184-7.2z"/><path d="M46.237 30.794c-2.504 3.833-6.83 6.371-11.737 6.371s-9.233-2.538-11.736-6.371c-2.504 3.833-6.83 6.371-11.737 6.371-1.496 0-2.936-.237-4.289-.673V69h15.68V43.037h24.164v25.964h15.68V36.49a13.944 13.944 0 01-4.289.674c-4.907 0-9.233-2.538-11.736-6.371zM55.365 0h-41.73v9.132h41.73V0z"/><path d="M42.033 47.586H26.97V69h15.064V47.586z"/></g><defs><clipPath id="mclip0_496_10800"><path fill="#fff" d="M0 0h69v69H0z"/></clipPath></defs></svg><svg fill="none" viewBox="0 0 81 57" id="icon-6"><path d="M80.868 24.436l.003 32.439H70.433l-.677.02H11.242l-11.115-.02V45.78L.124 24.436h80.744zM65.771 38.603H55.667l-.411.028a3.032 3.032 0 000 6.007l.41.028h10.105l.411-.028a3.032 3.032 0 000-6.007l-.41-.028zM80.851.291v10.438l.02.677-.003 6.967H.124l.003-6.967V.29H80.85z" fill="#3D3B3C"/></svg><svg fill="none" viewBox="0 0 69 69" id="icon-7"><path d="M12.367 25.97h43.966V69H68.7V16.064L33.37 0 0 16.064V69h12.367V25.97z" fill="#3D3B3C"/><path d="M32.281 55.888H17.125v13.11h15.156v-13.11zM32.281 38.637H17.125v13.11h15.156v-13.11zM51.575 55.888H36.42v13.11h15.156v-13.11z" fill="#3D3B3C"/></svg><svg fill="none" viewBox="0 0 66 66" id="icon-8"><path fill="#3D3B3C" d="M0 10h56v56H0zM0 0h56v5H0zM66 10v56h-5V10z"/></svg><svg fill="none" viewBox="0 0 82 68" id="icon-9"><path d="M0 24L41.5 0 82 24 41.5 50 0 24z" fill="#3D3B3C"/><path d="M42 57.5L.5 32v10L42 68l39.5-26V32L42 57.5z" fill="#3D3B3C"/></svg><svg fill="none" viewBox="0 0 12 12" id="mail"><path d="M6 6.895l5.908-4.447V2.19a.483.483 0 00-.483-.483H.575a.483.483 0 00-.483.483v.258L6 6.895z" fill="#F0544F"/><path d="M6.316 7.972a.524.524 0 01-.632 0L.092 3.762V9.81c0 .267.216.483.483.483h10.85a.483.483 0 00.483-.483V3.763L6.316 7.972z" fill="#F0544F"/></svg><svg fill="none" viewBox="0 0 21 25" id="profile"><path d="M20.494 21.498a5.164 5.164 0 00-5.164-5.164h-1.333a1.253 1.253 0 01-1.253-1.253c0-.257.104-.503.287-.683.775-.756 1.427-1.77 1.899-2.862a.532.532 0 00.315.122c.749 0 1.628-1.654 1.628-2.782 0-1.128-.104-2.042-.854-2.042-.088 0-.183.015-.278.039C15.688 3.815 14.915 0 10.246 0 5.374 0 4.805 3.808 4.751 6.863c-.068-.013-.138-.028-.201-.028-.749 0-.853.914-.853 2.042 0 1.128.879 2.782 1.628 2.782a.512.512 0 00.258-.072c.47 1.075 1.114 2.07 1.878 2.813.184.18.287.426.287.683 0 .692-.561 1.253-1.253 1.253H5.164A5.161 5.161 0 000 21.498v1.432c0 .9.73 1.631 1.631 1.631h17.232a1.63 1.63 0 001.632-1.631l-.001-1.432z" fill="#F0544F"/></svg><svg fill="none" viewBox="0 0 45 125" id="see-next"><path d="M40.643 115.293c-1.15-.664-2.412-.783-3.512-.255l.297.67c.95-.43 1.954-.312 2.854.209 1.704.984 2.247 2.924 1.19 4.753-1.057 1.828-3.008 2.327-4.712 1.342-.9-.52-1.504-1.331-1.606-2.369l-.729.077c.084 1.231.825 2.251 1.975 2.915 2.12 1.225 4.53.604 5.778-1.557 1.241-2.147.584-4.56-1.535-5.785zM24.735 114.091l6.935-2.494-1.075 7.283.607.496 5.285-6.467-.57-.466-4.465 5.464.986-6.922-.284-.233-6.61 2.348 4.475-5.476-.57-.466-5.284 6.468.57.465zM25.334 102.585c-1.568-1.817-4.06-2.011-5.938-.391-1.877 1.621-2.05 4.115-.481 5.932 1.568 1.817 4.061 2.011 5.938.391 1.878-1.621 2.05-4.115.481-5.932zm-.545.47c1.255 1.454 1.118 3.474-.469 4.844-1.587 1.369-3.605 1.21-4.86-.243-1.255-1.454-1.118-3.474.47-4.844 1.586-1.37 3.605-1.21 4.86.243zM11.002 97.12l3.984 6.149.605-.392-1.775-2.739 6.405-4.15-.435-.671-6.405 4.15-1.775-2.74-.604.392zM7.784 90.869c.635 1.363 1.85 2.191 3.288 2.246l-1.784.83.324.697 10.385-4.837-.338-.725-4.54 2.114c.848-1.136.974-2.571.353-3.906-.993-2.132-3.31-3.012-5.587-1.951-2.262 1.053-3.094 3.4-2.1 5.532zm7.055-3.233c.81 1.74.128 3.647-1.772 4.532-1.9.885-3.8.18-4.61-1.56-.81-1.74-.134-3.661 1.766-4.546 1.9-.885 3.805-.167 4.616 1.574zM7.102 76.174c-2.381.693-3.566 2.804-2.927 5 .64 2.198 2.807 3.35 5.189 2.657 2.38-.693 3.575-2.89 2.868-5.317-.353-1.214-1.12-2.19-2.186-2.647l-.378.593c.932.396 1.573 1.226 1.869 2.24.558 1.92-.326 3.693-2.208 4.325l-2.007-6.899c-.077.023-.158.03-.22.048zm-2.251 4.804c-.496-1.705.381-3.327 2.086-3.94l1.788 6.145c-1.787.387-3.378-.5-3.874-2.205zM1.683 68.724l1.136 7.24.711-.112-.506-3.225 7.54-1.183-.124-.79-7.54 1.183-.506-3.225-.711.112zM4.409 62.553l.046 2.544-3.006.092.024.8 8.348-.257-.065-3.151c-.051-2.192-1.047-3.346-2.822-3.291-1.695.052-2.573 1.184-2.525 3.263zm4.708.063l.04 2.336-4.078.126-.056-2.336c-.02-1.712.577-2.595 1.936-2.636 1.375-.043 2.138.814 2.158 2.51zM10.43 47.41l-7.536-1.303-1 5.787 2.692.578c2.344.535 4.689 1.152 4.552 2.41l-.084.49 2.743.474.131-.757-2.05-.354 1.347-7.789 2.05.354.127-.74-2.743-.475-.23 1.325zm-5.67 4.345l-2.034-.448.74-4.289 6.828 1.18-.96 5.55c-.459-1.005-2.57-1.565-4.575-1.993zM4.899 38.75c-.412 1.228-.374 2.524.06 3.547l.673-.197c-.373-.85-.452-1.974-.086-3.066.52-1.547 1.578-2.087 3.049-1.593l.637.214-.91 2.715c-.738 2.2.024 3.299 1.222 3.7 1.35.454 2.622-.318 3.217-2.093.463-1.38.227-2.54-.515-3.345l1.41.473.245-.728-5.021-1.684c-1.957-.657-3.325.1-3.981 2.057zm7.276 2.912c-.469 1.396-1.375 1.986-2.407 1.64-.91-.305-1.4-1.11-.85-2.749l.906-2.7 1.486.499c.985.836 1.312 1.975.864 3.31zM8.08 30.83l2.498 1.443c2.09 1.216 4.168 2.461 3.518 3.728-.051.1-.145.213-.232.313l.575.385c.174-.199.32-.376.414-.561.796-1.552-1.35-3.012-3.883-4.49l-1.928-1.115 1.986-3.873 6.791 3.483.366-.712-7.432-3.811-2.672 5.21zM17.152 21.387l-1.48 2.069-2.468-1.72-.458.656 6.853 4.776 1.828-2.568c1.266-1.79 1.156-3.31-.301-4.325-1.392-.97-2.771-.585-3.974 1.112zm3.74 2.86l-1.361 1.898-3.348-2.332 1.35-1.908c1.004-1.386 2.01-1.738 3.126-.96 1.129.786 1.23 1.929.234 3.302zM25.588 7.331l5.418 5.399-3.106 3.116-5.417-5.398-.565.567 5.417 5.398-3.128 3.14-5.418-5.399-.564.567 5.916 5.895 7.928-7.956-5.916-5.895-.565.566zM37.755 3.597C36.346 1.557 33.97 1.1 32.085 2.4c-1.882 1.3-2.29 3.721-.88 5.762 1.409 2.04 3.87 2.48 5.95 1.043 1.04-.719 1.724-1.755 1.82-2.91l-.681-.171c-.081 1.008-.666 1.879-1.535 2.48-1.645 1.136-3.607.857-4.8-.73l5.91-4.082c-.045-.066-.077-.141-.114-.194zm-5.269-.619c1.461-1.01 3.277-.688 4.397.736L31.617 7.35c-.931-1.574-.592-3.364.869-4.373z" fill="#323031"/></svg><svg fill="none" viewBox="0 0 12 12" id="tel"><path d="M8.927 12c.59 0 1.075-.15 1.444-.444l.034-.023a.294.294 0 00.042-.035l1.464-1.464a.294.294 0 000-.417l-2.5-2.5a.295.295 0 00-.418 0L7.68 8.43c-.357-.098-1.306-.446-2.398-1.538C4.147 5.759 3.688 4.629 3.574 4.31l1.307-1.306a.295.295 0 000-.417l-2.5-2.5a.294.294 0 00-.418 0L.501 1.547a.288.288 0 00-.048.064l-.002.003c-1.165 1.43 0 4.628 2.652 7.28C4.99 10.78 7.276 12 8.927 12z" fill="#F0544F"/></svg></svg>