<?xml version="1.0" encoding="utf-8"?><svg viewBox="0 0 83 125" xmlns="http://www.w3.org/2000/svg" xmlns:xlink="http://www.w3.org/1999/xlink"><style>:root>svg{display:none}:root>svg:target{display:block}</style><svg fill="none" viewBox="0 0 13 15" id="address"><path d="M6.5.115A5.805 5.805 0 00.695 5.92c0 1.432.52 2.74 1.379 3.752L6.5 14.885l4.426-5.213a5.778 5.778 0 001.38-3.752A5.805 5.805 0 006.5.115zm0 7.993a2.387 2.387 0 110-4.775 2.387 2.387 0 010 4.775z" fill="#F0544F"/></svg><svg fill="none" viewBox="0 0 39 20" id="arrow-down"><path d="M19.093 19.664L38.123.348h-11.3l-7.73 7.847L11.659.348H.359l18.733 19.316z" fill="#F0544F"/></svg><svg fill="none" viewBox="0 0 33 66" id="arrow-left"><g clip-path="url(#cclip0_1016_8824)"><path d="M0 33.134l32.96 32.96.346-19.902-13.23-13.23 13.057-13.059V0L0 33.134z" fill="#F0544F"/></g><defs><clipPath id="cclip0_1016_8824"><path fill="#fff" d="M0 0h33v66H0z"/></clipPath></defs></svg><svg fill="none" viewBox="0 0 33 66" id="arrow-right"><g clip-path="url(#dclip0_1016_8824)"><path d="M33.095 32.961L.134 0l-.345 19.903 13.23 13.23L-.039 46.192v19.904L33.095 32.96z" fill="#F0544F"/></g><defs><clipPath id="dclip0_1016_8824"><path fill="#fff" d="M0 0h33v66H0z"/></clipPath></defs></svg><svg fill="none" viewBox="0 0 36 36" id="arrow-up"><path d="M17.53 0L0 17.53l10.585.183 7.036-7.036 6.944 6.944H35.15L17.53.001z" fill="#3D3B3C"/></svg><svg fill="none" viewBox="0 0 83 56" id="check"><path d="M29.76 55.24L82.183.816H64.219L29.605 37.208 17.877 25.48H0l29.76 29.76z" fill="#3D3B3C"/></svg><svg fill="none" viewBox="0 0 39 48" id="download-file"><path d="M30.615 22.059v24.94H1V7.354h15.025" stroke="#323031"/><path d="M16.051 22.047l14.63-.05-4.355-4.479-5.873.02-.02-5.796-4.432-4.402.05 14.707z" fill="#F0544F"/></svg><svg fill="none" viewBox="0 0 12 12" id="mail"><path d="M6 6.895l5.908-4.447V2.19a.483.483 0 00-.483-.483H.575a.483.483 0 00-.483.483v.258L6 6.895z" fill="#F0544F"/><path d="M6.316 7.972a.524.524 0 01-.632 0L.092 3.762V9.81c0 .267.216.483.483.483h10.85a.483.483 0 00.483-.483V3.763L6.316 7.972z" fill="#F0544F"/></svg><svg fill="none" viewBox="0 0 21 25" id="profile"><path d="M20.494 21.498a5.164 5.164 0 00-5.164-5.164h-1.333a1.253 1.253 0 01-1.253-1.253c0-.257.104-.503.287-.683.775-.756 1.427-1.77 1.899-2.862a.532.532 0 00.315.122c.749 0 1.628-1.654 1.628-2.782 0-1.128-.104-2.042-.854-2.042-.088 0-.183.015-.278.039C15.688 3.815 14.915 0 10.246 0 5.374 0 4.805 3.808 4.751 6.863c-.068-.013-.138-.028-.201-.028-.749 0-.853.914-.853 2.042 0 1.128.879 2.782 1.628 2.782a.512.512 0 00.258-.072c.47 1.075 1.114 2.07 1.878 2.813.184.18.287.426.287.683 0 .692-.561 1.253-1.253 1.253H5.164A5.161 5.161 0 000 21.498v1.432c0 .9.73 1.631 1.631 1.631h17.232a1.63 1.63 0 001.632-1.631l-.001-1.432z" fill="#F0544F"/></svg><svg fill="none" viewBox="0 0 45 125" id="see-next"><path d="M40.643 115.293c-1.15-.664-2.412-.783-3.512-.255l.297.67c.95-.43 1.954-.312 2.854.209 1.704.984 2.247 2.924 1.19 4.753-1.057 1.828-3.008 2.327-4.712 1.342-.9-.52-1.504-1.331-1.606-2.369l-.729.077c.084 1.231.825 2.251 1.975 2.915 2.12 1.225 4.53.604 5.778-1.557 1.241-2.147.584-4.56-1.535-5.785zM24.735 114.091l6.935-2.494-1.075 7.283.607.496 5.285-6.467-.57-.466-4.465 5.464.986-6.922-.284-.233-6.61 2.348 4.475-5.476-.57-.466-5.284 6.468.57.465zM25.334 102.585c-1.568-1.817-4.06-2.011-5.938-.391-1.877 1.621-2.05 4.115-.481 5.932 1.568 1.817 4.061 2.011 5.938.391 1.878-1.621 2.05-4.115.481-5.932zm-.545.47c1.255 1.454 1.118 3.474-.469 4.844-1.587 1.369-3.605 1.21-4.86-.243-1.255-1.454-1.118-3.474.47-4.844 1.586-1.37 3.605-1.21 4.86.243zM11.002 97.12l3.984 6.149.605-.392-1.775-2.739 6.405-4.15-.435-.671-6.405 4.15-1.775-2.74-.604.392zM7.784 90.869c.635 1.363 1.85 2.191 3.288 2.246l-1.784.83.324.697 10.385-4.837-.338-.725-4.54 2.114c.848-1.136.974-2.571.353-3.906-.993-2.132-3.31-3.012-5.587-1.951-2.262 1.053-3.094 3.4-2.1 5.532zm7.055-3.233c.81 1.74.128 3.647-1.772 4.532-1.9.885-3.8.18-4.61-1.56-.81-1.74-.134-3.661 1.766-4.546 1.9-.885 3.805-.167 4.616 1.574zM7.102 76.174c-2.381.693-3.566 2.804-2.927 5 .64 2.198 2.807 3.35 5.189 2.657 2.38-.693 3.575-2.89 2.868-5.317-.353-1.214-1.12-2.19-2.186-2.647l-.378.593c.932.396 1.573 1.226 1.869 2.24.558 1.92-.326 3.693-2.208 4.325l-2.007-6.899c-.077.023-.158.03-.22.048zm-2.251 4.804c-.496-1.705.381-3.327 2.086-3.94l1.788 6.145c-1.787.387-3.378-.5-3.874-2.205zM1.683 68.724l1.136 7.24.711-.112-.506-3.225 7.54-1.183-.124-.79-7.54 1.183-.506-3.225-.711.112zM4.409 62.553l.046 2.544-3.006.092.024.8 8.348-.257-.065-3.151c-.051-2.192-1.047-3.346-2.822-3.291-1.695.052-2.573 1.184-2.525 3.263zm4.708.063l.04 2.336-4.078.126-.056-2.336c-.02-1.712.577-2.595 1.936-2.636 1.375-.043 2.138.814 2.158 2.51zM10.43 47.41l-7.536-1.303-1 5.787 2.692.578c2.344.535 4.689 1.152 4.552 2.41l-.084.49 2.743.474.131-.757-2.05-.354 1.347-7.789 2.05.354.127-.74-2.743-.475-.23 1.325zm-5.67 4.345l-2.034-.448.74-4.289 6.828 1.18-.96 5.55c-.459-1.005-2.57-1.565-4.575-1.993zM4.899 38.75c-.412 1.228-.374 2.524.06 3.547l.673-.197c-.373-.85-.452-1.974-.086-3.066.52-1.547 1.578-2.087 3.049-1.593l.637.214-.91 2.715c-.738 2.2.024 3.299 1.222 3.7 1.35.454 2.622-.318 3.217-2.093.463-1.38.227-2.54-.515-3.345l1.41.473.245-.728-5.021-1.684c-1.957-.657-3.325.1-3.981 2.057zm7.276 2.912c-.469 1.396-1.375 1.986-2.407 1.64-.91-.305-1.4-1.11-.85-2.749l.906-2.7 1.486.499c.985.836 1.312 1.975.864 3.31zM8.08 30.83l2.498 1.443c2.09 1.216 4.168 2.461 3.518 3.728-.051.1-.145.213-.232.313l.575.385c.174-.199.32-.376.414-.561.796-1.552-1.35-3.012-3.883-4.49l-1.928-1.115 1.986-3.873 6.791 3.483.366-.712-7.432-3.811-2.672 5.21zM17.152 21.387l-1.48 2.069-2.468-1.72-.458.656 6.853 4.776 1.828-2.568c1.266-1.79 1.156-3.31-.301-4.325-1.392-.97-2.771-.585-3.974 1.112zm3.74 2.86l-1.361 1.898-3.348-2.332 1.35-1.908c1.004-1.386 2.01-1.738 3.126-.96 1.129.786 1.23 1.929.234 3.302zM25.588 7.331l5.418 5.399-3.106 3.116-5.417-5.398-.565.567 5.417 5.398-3.128 3.14-5.418-5.399-.564.567 5.916 5.895 7.928-7.956-5.916-5.895-.565.566zM37.755 3.597C36.346 1.557 33.97 1.1 32.085 2.4c-1.882 1.3-2.29 3.721-.88 5.762 1.409 2.04 3.87 2.48 5.95 1.043 1.04-.719 1.724-1.755 1.82-2.91l-.681-.171c-.081 1.008-.666 1.879-1.535 2.48-1.645 1.136-3.607.857-4.8-.73l5.91-4.082c-.045-.066-.077-.141-.114-.194zm-5.269-.619c1.461-1.01 3.277-.688 4.397.736L31.617 7.35c-.931-1.574-.592-3.364.869-4.373z" fill="#323031"/></svg><svg fill="none" viewBox="0 0 12 12" id="tel"><path d="M8.927 12c.59 0 1.075-.15 1.444-.444l.034-.023a.294.294 0 00.042-.035l1.464-1.464a.294.294 0 000-.417l-2.5-2.5a.295.295 0 00-.418 0L7.68 8.43c-.357-.098-1.306-.446-2.398-1.538C4.147 5.759 3.688 4.629 3.574 4.31l1.307-1.306a.295.295 0 000-.417l-2.5-2.5a.294.294 0 00-.418 0L.501 1.547a.288.288 0 00-.048.064l-.002.003c-1.165 1.43 0 4.628 2.652 7.28C4.99 10.78 7.276 12 8.927 12z" fill="#F0544F"/></svg></svg>