<?xml version="1.0" encoding="utf-8"?><svg viewBox="0 0 83 67" xmlns="http://www.w3.org/2000/svg" xmlns:xlink="http://www.w3.org/1999/xlink"><style>:root>svg{display:none}:root>svg:target{display:block}</style><svg fill="none" viewBox="0 0 13 15" id="address"><path d="M6.5.115A5.805 5.805 0 00.695 5.92c0 1.432.52 2.74 1.379 3.752L6.5 14.885l4.426-5.213a5.778 5.778 0 001.38-3.752A5.805 5.805 0 006.5.115zm0 7.993a2.387 2.387 0 110-4.775 2.387 2.387 0 010 4.775z" fill="#F0544F"/></svg><svg fill="none" viewBox="0 0 39 20" id="arrow-down"><path d="M19.093 19.664L38.123.348h-11.3l-7.73 7.847L11.659.348H.359l18.733 19.316z" fill="#F0544F"/></svg><svg fill="none" viewBox="0 0 67 67" id="arrow-left"><path d="M-.001 33.134l32.961 32.96.345-19.902-13.23-13.23 13.058-13.059V0L-.002 33.134z" fill="#323031"/></svg><svg fill="none" viewBox="0 0 7 13" id="arrow-right"><path d="M6.063 6.063L0 0v3.6l2.463 2.463L0 8.43v3.6l6.063-5.968z" fill="#fff"/></svg><svg fill="none" viewBox="0 0 36 36" id="arrow-up"><path d="M17.53 0L0 17.53l10.585.183 7.036-7.036 6.944 6.944H35.15L17.53.001z" fill="#3D3B3C"/></svg><svg fill="none" viewBox="0 0 83 56" id="check"><path d="M29.76 55.24L82.183.816H64.219L29.605 37.208 17.877 25.48H0l29.76 29.76z" fill="#3D3B3C"/></svg><svg fill="none" viewBox="0 0 39 48" id="download-file"><path d="M30.615 22.059v24.94H1V7.354h15.025" stroke="#323031"/><path d="M16.051 22.047l14.63-.05-4.355-4.479-5.873.02-.02-5.796-4.432-4.402.05 14.707z" fill="#F0544F"/></svg><svg fill="none" viewBox="0 0 12 12" id="mail"><path d="M6 6.895l5.908-4.447V2.19a.483.483 0 00-.483-.483H.575a.483.483 0 00-.483.483v.258L6 6.895z" fill="#F0544F"/><path d="M6.316 7.972a.524.524 0 01-.632 0L.092 3.762V9.81c0 .267.216.483.483.483h10.85a.483.483 0 00.483-.483V3.763L6.316 7.972z" fill="#F0544F"/></svg><svg fill="none" viewBox="0 0 21 25" id="profile"><path d="M20.494 21.498a5.164 5.164 0 00-5.164-5.164h-1.333a1.253 1.253 0 01-1.253-1.253c0-.257.104-.503.287-.683.775-.756 1.427-1.77 1.899-2.862a.532.532 0 00.315.122c.749 0 1.628-1.654 1.628-2.782 0-1.128-.104-2.042-.854-2.042-.088 0-.183.015-.278.039C15.688 3.815 14.915 0 10.246 0 5.374 0 4.805 3.808 4.751 6.863c-.068-.013-.138-.028-.201-.028-.749 0-.853.914-.853 2.042 0 1.128.879 2.782 1.628 2.782a.512.512 0 00.258-.072c.47 1.075 1.114 2.07 1.878 2.813.184.18.287.426.287.683 0 .692-.561 1.253-1.253 1.253H5.164A5.161 5.161 0 000 21.498v1.432c0 .9.73 1.631 1.631 1.631h17.232a1.63 1.63 0 001.632-1.631l-.001-1.432z" fill="#F0544F"/></svg><svg fill="none" viewBox="0 0 12 12" id="tel"><path d="M8.927 12c.59 0 1.075-.15 1.444-.444l.034-.023a.294.294 0 00.042-.035l1.464-1.464a.294.294 0 000-.417l-2.5-2.5a.295.295 0 00-.418 0L7.68 8.43c-.357-.098-1.306-.446-2.398-1.538C4.147 5.759 3.688 4.629 3.574 4.31l1.307-1.306a.295.295 0 000-.417l-2.5-2.5a.294.294 0 00-.418 0L.501 1.547a.288.288 0 00-.048.064l-.002.003c-1.165 1.43 0 4.628 2.652 7.28C4.99 10.78 7.276 12 8.927 12z" fill="#F0544F"/></svg></svg>